<svg width="1970" height="1970" viewBox="0 0 1970 1970" fill="none" xmlns="http://www.w3.org/2000/svg">
<circle cx="985" cy="985" r="736" stroke="#E89F31" stroke-width="30" stroke-linejoin="round" stroke-dasharray="120 50"/>
<path fill-rule="evenodd" clip-rule="evenodd" d="M1407.6 525.791C1398.17 531.116 1387.1 537.715 1383.02 540.454C1358.49 556.909 1332.98 583.321 1314.3 611.621C1305.44 625.032 1291.82 651.012 1287.21 663.287C1284.81 669.662 1284.8 670.269 1286.95 677.803C1294.82 705.297 1297.03 739.079 1293.11 771.706C1292.14 779.774 1291.51 786.508 1291.72 786.672C1291.92 786.835 1296.78 782.354 1302.51 776.714C1314.64 764.78 1329.91 752.44 1343.36 743.713C1353.72 736.991 1373.92 726.522 1382.97 723.189C1388.66 721.092 1388.67 721.08 1393.4 712.91C1396.01 708.413 1401.81 696.768 1406.29 687.033C1419.65 658.009 1426.29 634.773 1429.91 604.363C1432.68 581.05 1432.26 564.743 1428.2 538.396L1424.76 516.109L1407.6 525.791ZM1160.72 632.92C1148.53 658.495 1146.63 663.009 1143.22 674.452C1135.97 698.763 1131.87 721.792 1131.36 741.02L1131.11 750.788L1136.19 753.296C1147.22 758.739 1162.14 771.73 1173.83 786.054C1181.69 795.687 1193.64 817.628 1198.56 831.437C1206.15 852.769 1211.07 881.262 1211.2 904.626C1211.23 909.74 1211.35 914.596 1211.45 915.417C1211.58 916.346 1218.11 903.473 1228.73 881.36C1244.55 848.446 1246.16 844.726 1250.45 831.183C1270.82 766.807 1267.79 706.083 1241.97 660.989C1229.04 638.394 1217.15 627.179 1191.6 613.465L1174.39 604.226L1160.72 632.92ZM1475.52 754.225C1467.05 751.319 1450.57 748.466 1441.11 748.267C1387.6 747.144 1329.31 781.212 1287.08 838.293C1274.77 854.944 1267.59 867.53 1251.87 900.037L1237.87 929.004L1249.48 920.614C1262.61 911.123 1286.32 897.918 1300.54 892.172C1312.13 887.488 1331.85 882.486 1345.06 880.879C1365.33 878.413 1388.38 880.959 1408.99 887.938C1414.68 889.866 1419.32 890.821 1420.08 890.22C1432.48 880.377 1447.49 865.478 1458.68 851.908C1473.53 833.909 1478.75 825.64 1493.87 796.163L1507.73 769.146L1493.33 762.27C1485.41 758.489 1477.39 754.867 1475.52 754.225ZM1077.05 802.454C1065.72 826.24 1062.82 833.027 1060.08 842.092C1052.77 866.296 1048.09 892.398 1047.63 911.478L1047.43 919.886L1055.78 924.911C1099.82 951.423 1127.31 1009.12 1127.55 1075.55L1127.59 1085.83L1140.77 1059.74C1154.95 1031.67 1162.42 1014.45 1167.9 997.242C1191.14 924.206 1180.86 849.48 1141.83 807.834C1132.15 797.512 1124.52 791.945 1107.52 782.797L1090.71 773.754L1077.05 802.454ZM1389.6 923.229C1355.86 912.786 1320.02 917.653 1282.27 937.805C1252.03 953.949 1226.43 976.673 1203.4 1007.82C1191.07 1024.49 1183.9 1037.06 1168.14 1069.66L1154.09 1098.72L1164.41 1090.93C1176.64 1081.7 1207.69 1064.6 1220.48 1060.06C1246.2 1050.93 1270.88 1047.78 1295.58 1050.48C1306.04 1051.62 1321.88 1055.8 1328.92 1059.28L1334.07 1061.82L1343.8 1053.37C1355.88 1042.89 1364.57 1033.99 1374.69 1021.75C1389.27 1004.12 1395.5 994.254 1410.45 965.128L1424.04 938.67L1410.06 931.953C1402.37 928.257 1393.17 924.332 1389.6 923.229ZM995.547 966.984C982.832 992.742 976.818 1008.2 971.872 1027.85C968.169 1042.56 964.839 1064.12 964.199 1077.51L963.646 1089.11L972.348 1094.39C1002.89 1112.95 1026.44 1147.57 1036.88 1189.25C1041.57 1207.97 1043.6 1225.75 1044.1 1252.58C1044.16 1255.75 1044.98 1254.22 1061.03 1220.95C1078.51 1184.7 1081.46 1177.43 1087.2 1156.53C1106.57 1085.94 1094.86 1015.69 1057.21 976.721C1046.83 965.971 1040.62 961.432 1023.91 952.396L1007.21 943.36L995.547 966.984ZM1309.38 1093.82C1283.01 1084.92 1254.94 1085.34 1225.58 1095.08C1211.73 1099.68 1185.25 1113.93 1171.69 1124.08C1158.77 1133.76 1138.97 1152.79 1128.65 1165.42C1112 1185.83 1108.66 1191.29 1088.27 1231.61L1069.63 1268.49L1077.46 1262.58C1087.03 1255.37 1106.36 1243.55 1118.11 1237.74C1144.01 1224.93 1171.44 1218.54 1197.69 1219.21C1214.89 1219.66 1228.71 1222.21 1241.31 1227.29L1250.71 1231.07L1260.28 1222.76C1272.31 1212.32 1281.27 1203.15 1291.2 1191.1C1306.16 1172.96 1311.35 1164.75 1326.5 1135.23L1340.36 1108.21L1326.36 1101.52C1318.66 1097.84 1311.02 1094.38 1309.38 1093.82ZM909.942 1140.95C895.329 1171.61 892.207 1180.02 886.575 1203.96C873.026 1261.53 881.373 1321.11 908.324 1359.19C920.385 1376.23 935.669 1388.77 957.533 1399.56L970.149 1405.79L978.958 1387.94C989.189 1367.22 996.166 1350.45 1000.94 1335.11C1023.65 1262.23 1013.24 1188.28 974.456 1146.9C964.783 1136.57 957.153 1131.01 940.154 1121.86L923.351 1112.82L909.942 1140.95ZM1222.46 1262.34C1200.87 1255.1 1171.35 1255.18 1147.91 1262.55C1103.5 1276.52 1062.47 1308.46 1030.56 1353.92C1024.62 1362.38 1020.73 1369.28 1009.44 1391.32L995.592 1418.34L1008.13 1424.53C1028.61 1434.64 1045.12 1438.89 1064.22 1438.95C1120.34 1439.14 1179.85 1402.27 1222.33 1341C1227.95 1332.88 1232.43 1324.94 1243.08 1304.19L1256.66 1277.73L1243.09 1271.22C1235.62 1267.64 1226.33 1263.64 1222.46 1262.34Z" fill="#E89F31"/>
<path fill-rule="evenodd" clip-rule="evenodd" d="M393.112 1048.1C395.592 1055.42 398.749 1064.03 400.127 1067.23C408.404 1086.43 423.529 1106.97 440.883 1122.57C449.107 1129.96 465.506 1141.67 473.496 1145.85C477.646 1148.02 478.069 1148.07 483.634 1146.94C503.945 1142.81 527.912 1143.27 550.256 1148.2C555.781 1149.41 560.417 1150.3 560.559 1150.15C560.7 1150.01 558.204 1146.14 555.012 1141.54C548.258 1131.81 541.636 1119.72 537.304 1109.21C533.968 1101.12 529.311 1085.5 528.175 1078.59C527.46 1074.24 527.453 1074.23 522.356 1070.22C519.55 1068 512.159 1062.98 505.931 1059.06C487.364 1047.36 471.962 1041 451.131 1036.43C435.162 1032.93 423.679 1032.23 404.676 1033.61L388.602 1034.78L393.112 1048.1ZM435.438 1237.72C451.744 1248.34 454.655 1250.03 462.222 1253.27C478.297 1260.15 493.891 1264.61 507.298 1266.18L514.109 1266.97L516.541 1263.36C521.818 1255.53 532.901 1245.27 544.489 1237.49C552.283 1232.27 569.244 1224.76 579.572 1221.98C595.528 1217.67 616.148 1215.79 632.539 1217.14C636.126 1217.43 639.544 1217.65 640.133 1217.62C640.8 1217.59 632.646 1211.95 618.56 1202.7C597.593 1188.94 595.199 1187.52 586.277 1183.5C543.866 1164.42 500.911 1162.89 465.886 1179.24C448.336 1187.43 438.9 1195.54 425.902 1213.63L417.144 1225.81L435.438 1237.72ZM562.2 1011.91C559.04 1018.01 554.855 1030.04 553.461 1037.04C545.576 1076.64 561.718 1121.96 596.118 1156.79C606.153 1166.95 614.021 1173.05 634.717 1186.71L653.158 1198.89L648.819 1189.76C643.91 1179.44 637.801 1161.05 635.66 1150.15C633.914 1141.27 633.025 1126.35 633.652 1116.45C634.612 1101.28 639.454 1084.35 647.077 1069.51C649.183 1065.41 650.468 1062.03 650.148 1061.43C644.895 1051.63 636.445 1039.58 628.42 1030.44C617.776 1018.32 612.673 1013.94 594.023 1000.91L576.929 988.957L570.2 999.208C566.499 1004.85 562.899 1010.56 562.2 1011.91ZM543.145 1310.25C558.311 1320.11 562.683 1322.69 568.671 1325.28C584.664 1332.19 602.334 1337.28 615.644 1338.8L621.51 1339.47L626.138 1333.6C650.559 1302.6 694.635 1285.8 741.224 1289.73L748.43 1290.34L731.893 1278.96C714.102 1266.71 703.027 1260.1 691.697 1254.98C643.599 1233.22 589.869 1236.21 555.507 1262.56C546.991 1269.1 542.078 1274.4 533.411 1286.44L524.844 1298.34L543.145 1310.25ZM669.237 1086.06C657.443 1110.43 656.1 1137.29 665.215 1166.52C672.517 1189.94 685.047 1210.32 703.815 1229.32C713.866 1239.49 721.723 1245.58 742.478 1259.28L760.978 1271.5L756.886 1263.36C752.039 1253.73 744.179 1229.66 742.694 1219.9C739.709 1200.27 740.775 1181.78 745.939 1163.64C748.126 1155.96 753.155 1144.47 756.526 1139.47L758.991 1135.81L754.363 1128.07C748.618 1118.47 743.536 1111.48 736.302 1103.22C725.881 1091.32 719.792 1086.09 701.365 1073.2L684.625 1061.5L678.064 1071.44C674.455 1076.91 670.483 1083.49 669.237 1086.06ZM647.633 1380.85C663.997 1391.87 674.034 1397.28 687.146 1402.17C696.965 1405.82 711.626 1409.63 720.929 1410.93L728.981 1412.06L733.84 1405.94C750.894 1384.45 778.28 1369.14 808.871 1363.98C822.612 1361.67 835.34 1361.27 854.208 1362.56C856.442 1362.71 855.478 1362.01 834.292 1348.05C811.207 1332.85 806.505 1330.21 792.618 1324.66C745.719 1305.93 694.937 1310.26 662.635 1335.74C653.725 1342.77 649.72 1347.1 641.172 1358.92L632.625 1370.74L647.633 1380.85ZM778.145 1156.1C768.408 1175.09 764.978 1195.92 767.909 1218.28C769.293 1228.84 775.768 1249.35 781.087 1260.02C786.155 1270.2 796.862 1286.06 804.348 1294.49C816.438 1308.1 819.826 1310.91 845.375 1328.52L868.742 1344.62L865.642 1338.45C861.857 1330.91 856.141 1315.85 853.627 1306.78C848.083 1286.79 847.246 1266.07 851.2 1246.65C853.791 1233.93 857.417 1223.84 862.643 1214.82L866.541 1208.09L861.989 1200.48C856.268 1190.91 851.028 1183.71 843.903 1175.59C833.176 1163.38 828.107 1159.03 809.428 1145.97L792.334 1134.02L785.791 1143.98C782.192 1149.46 778.751 1154.91 778.145 1156.1ZM758.19 1455.08C777.733 1467.81 783.218 1470.64 799.242 1476.3C837.794 1489.91 880.652 1487.42 910.909 1469.8C924.448 1461.91 935.262 1451.36 945.726 1435.83L951.763 1426.86L940.427 1419.23C927.26 1410.36 916.437 1404.15 906.324 1399.66C858.26 1378.31 805.059 1381.44 770.913 1407.63C762.396 1414.16 757.482 1419.47 748.82 1431.5L740.257 1443.4L758.19 1455.08Z" fill="#E89F31"/>
</svg>
